<svg width="108" height="108" viewBox="0 0 108 108" fill="none" xmlns="http://www.w3.org/2000/svg">
<path fill-rule="evenodd" clip-rule="evenodd" d="M53.7931 49.5011C68.7782 49.5011 85.5498 77.0544 88.1374 88.7228C90.7249 100.396 83.6553 110.003 72.4592 107.227C67.5452 106.007 57.8251 101.345 54.0001 101.417C49.8376 101.489 43.2945 105.179 37.8585 107.051C25.9019 111.173 16.6318 101.278 19.8134 88.7228C23.2964 74.9934 39.9735 49.5011 53.7931 49.5011V49.5011ZM102.362 29.7463C107.708 32.1718 109.693 42.4362 106.385 53.4611C103.217 63.9955 95.8999 70.588 85.8828 66.043C77.1933 62.0965 76.1718 51.7421 81.8598 42.3282C87.5928 32.8468 97.0114 27.3163 102.362 29.7463V29.7463ZM3.50524 32.9233C-1.19279 36.2038 -1.26479 46.4052 3.87424 56.3906C8.78828 65.9305 16.9828 70.9525 25.7804 64.8055C33.4125 59.4731 32.5485 49.3571 25.4114 41.3382C18.2293 33.2698 8.20328 29.6428 3.50524 32.9233V32.9233ZM73.8993 0.109562C79.8528 1.23905 84.3438 11.0355 83.7183 22.8884C83.1153 34.2148 77.3958 42.6072 66.2492 40.4922C56.5786 38.6607 53.0281 28.5358 56.4346 17.7179C59.8591 6.8235 67.9502 -1.01993 73.8993 0.109562V0.109562ZM27.5714 0.37056C21.8654 2.40004 18.9314 12.7725 21.3749 24.3869C23.7104 35.4883 30.6539 42.8997 41.3415 39.0972C50.6116 35.8033 52.5646 25.2508 47.5381 15.0854C42.4755 4.84352 33.2775 -1.65892 27.5714 0.37056V0.37056Z" fill="#F7F7F7"/>
</svg>
