<?xml version="1.0" standalone="no"?>
<!DOCTYPE svg PUBLIC "-//W3C//DTD SVG 20010904//EN"
 "http://www.w3.org/TR/2001/REC-SVG-20010904/DTD/svg10.dtd">
<svg version="1.0" xmlns="http://www.w3.org/2000/svg"
 width="84.000000pt" height="84.000000pt" viewBox="0 0 84.000000 84.000000"
 preserveAspectRatio="xMidYMid meet">
<metadata>
Created by potrace 1.14, written by Peter Selinger 2001-2017
</metadata>
<g transform="translate(0.000000,84.000000) scale(0.100000,-0.100000)"
fill="#000000" stroke="none">
<path d="M185 455 c0 -36 3 -65 8 -65 4 0 7 29 7 65 0 36 -3 65 -7 65 -5 0 -8
-29 -8 -65z"/>
<path d="M475 435 c0 -55 4 -75 13 -75 10 0 12 18 10 72 -4 97 -23 100 -23 3z"/>
<path d="M77 493 c-10 -9 -9 -35 1 -29 5 3 15 -17 22 -44 8 -30 19 -50 28 -50
7 0 11 6 9 13 -3 6 -14 36 -23 65 -17 51 -24 59 -37 45z"/>
<path d="M311 467 c-14 -26 -11 -79 4 -84 6 -1 11 21 12 52 0 30 0 55 -1 55
-2 0 -8 -11 -15 -23z"/>
<path d="M527 482 c8 -5 12 -27 10 -60 -1 -30 2 -52 8 -52 5 0 11 27 13 60 3
57 2 60 -20 60 -15 0 -19 -3 -11 -8z"/>
<path d="M373 462 c-22 -14 -20 -72 3 -72 14 0 14 3 4 15 -10 12 -9 15 8 15
24 0 35 23 19 39 -13 13 -18 13 -34 3z m27 -17 c0 -8 -7 -15 -15 -15 -16 0
-20 12 -8 23 11 12 23 8 23 -8z"/>
<path d="M711 456 c-15 -18 -11 -58 7 -64 7 -2 10 2 6 12 -4 11 -1 16 11 16
11 0 15 -5 11 -16 -3 -8 -2 -13 3 -10 5 3 8 20 7 38 -2 36 -25 48 -45 24z m29
-11 c0 -8 -7 -15 -15 -15 -9 0 -12 6 -9 15 4 8 10 15 15 15 5 0 9 -7 9 -15z"/>
<path d="M224 446 c-8 -20 -1 -49 11 -53 6 -2 10 13 10 32 0 36 -11 47 -21 21z"/>
<path d="M265 424 c0 -30 2 -32 13 -17 6 9 12 20 12 24 0 3 -6 11 -12 17 -10
8 -13 2 -13 -24z"/>
<path d="M579 444 c-14 -17 -3 -44 22 -53 12 -4 12 -2 0 12 -7 9 -11 26 -8 37
6 24 4 25 -14 4z"/>
<path d="M618 447 c8 -10 11 -25 7 -39 -6 -18 -4 -20 5 -12 15 15 9 56 -10 62
-13 4 -13 3 -2 -11z"/>
<path d="M153 443 c-15 -6 -18 -53 -3 -53 6 0 10 11 10 24 0 13 6 27 13 29 6
3 8 5 2 5 -5 0 -16 -2 -22 -5z"/>
<path d="M666 429 c4 -13 11 -40 15 -59 6 -30 7 -27 6 19 -1 36 -7 56 -16 59
-10 3 -11 -2 -5 -19z"/>
<path d="M45 400 c-3 -5 -1 -10 4 -10 6 0 11 5 11 10 0 6 -2 10 -4 10 -3 0 -8
-4 -11 -10z"/>
<path d="M626 344 c-9 -22 -8 -24 9 -18 8 4 15 12 15 20 0 19 -16 18 -24 -2z"/>
</g>
</svg>
